<svg width="651" height="248" viewBox="0 0 651 248" fill="none" xmlns="http://www.w3.org/2000/svg">
<path d="M73.1865 13.4693C68.7226 9.01716 63.9908 4.83342 59.0175 0.944336C54.0786 4.87612 49.3832 9.10072 44.9576 13.5919C49.9513 17.3084 54.6845 21.3555 59.1249 25.7005C63.5279 21.3166 68.2259 17.2287 73.1865 13.4693Z" fill="url(#paint0_linear)"/>
<path d="M47.8883 38.3462C43.4859 33.9803 38.7491 29.951 33.7198 26.3C29.8763 31.1507 26.3148 36.235 23.0598 41.528C28.1632 45.2559 32.9082 49.4455 37.2331 54.0351C40.4283 48.5535 43.9913 43.3126 47.8883 38.3462Z" fill="url(#paint1_linear)"/>
<path d="M48.5899 68.484C51.6645 62.4531 55.2309 56.7148 59.2362 51.322C63.289 56.6806 66.9052 62.3877 70.0321 68.3903C65.6475 75.2657 62.0625 82.7006 59.4081 90.5639C56.6854 82.7264 53.0356 75.3227 48.5899 68.484Z" fill="url(#paint2_linear)"/>
<path d="M30.2306 67.7659C26.0239 62.7401 21.2654 58.1917 16.0485 54.2141C13.2015 59.9839 10.7001 65.9547 8.57144 72.0996C14.1905 77.0442 19.0018 82.8848 22.7822 89.3981C24.6728 81.9252 27.1743 74.6958 30.2306 67.7659Z" fill="url(#paint3_linear)"/>
<path d="M23.0828 158.316C19.3585 164.864 14.5978 170.745 9.02391 175.736C11.2062 181.861 13.7598 187.809 16.6576 193.555C21.8385 189.533 26.5573 184.943 30.7208 179.88C27.6033 172.977 25.0385 165.77 23.0828 158.316Z" fill="url(#paint4_linear)"/>
<path d="M41.9435 162.364C37.7525 150.104 35.4783 136.954 35.4783 123.274C35.4783 109.965 37.6306 97.1587 41.6062 85.1843C47.4171 96.9187 50.6832 110.137 50.6832 124.119C50.6832 137.827 47.5433 150.803 41.9435 162.364Z" fill="url(#paint5_linear)"/>
<path d="M37.8432 193.549C33.5578 198.177 28.8494 202.407 23.7795 206.179C27.0801 211.443 30.6857 216.496 34.5716 221.313C39.5682 217.619 44.2698 213.549 48.6347 209.144C44.6943 204.212 41.0858 199.002 37.8432 193.549Z" fill="url(#paint6_linear)"/>
<path d="M59.8693 196.071C55.8166 190.712 52.2003 185.005 49.0735 179.002C53.4581 172.127 57.0431 164.692 59.6974 156.829C62.4202 164.666 66.07 172.07 70.5157 178.909C67.4411 184.939 63.8747 190.678 59.8693 196.071Z" fill="url(#paint7_linear)"/>
<path d="M59.9807 221.692C55.5777 226.076 50.8797 230.164 45.9191 233.923C50.383 238.375 55.1148 242.559 60.0881 246.448C65.027 242.516 69.7224 238.292 74.148 233.801C69.1543 230.084 64.4211 226.037 59.9807 221.692Z" fill="url(#paint8_linear)"/>
<path d="M85.3858 221.093C80.3565 217.442 75.6197 213.412 71.2173 209.046C75.1142 204.08 78.6773 198.839 81.8725 193.357C86.1974 197.947 90.9423 202.137 96.0458 205.865C92.7908 211.158 89.2292 216.242 85.3858 221.093Z" fill="url(#paint9_linear)"/>
<path d="M95.3261 41.2138C92.0255 35.95 88.4199 30.8969 84.534 26.0793C79.5374 29.7734 74.8357 33.8436 70.4709 38.2482C74.4113 43.1811 78.0198 48.3908 81.2623 53.8435C85.5478 49.2158 90.2562 44.9855 95.3261 41.2138Z" fill="url(#paint10_linear)"/>
<path d="M88.3848 67.5121C92.5482 62.4491 97.267 57.86 102.448 53.838C105.346 59.5833 107.899 65.5318 110.082 71.6566C104.508 76.648 99.7471 82.529 96.0228 89.0764C94.0671 81.6228 91.5023 74.4159 88.3848 67.5121Z" fill="url(#paint11_linear)"/>
<path d="M77.1621 85.0281C71.5623 96.5901 68.4224 109.565 68.4224 123.274C68.4224 137.255 71.6885 150.474 77.4993 162.208C81.475 150.234 83.6273 137.428 83.6273 124.119C83.6273 110.438 81.3531 97.2888 77.1621 85.0281Z" fill="url(#paint12_linear)"/>
<path d="M88.875 179.627C93.0817 184.653 97.8401 189.201 103.057 193.178C105.904 187.409 108.405 181.438 110.534 175.293C104.915 170.348 100.104 164.508 96.3234 157.995C94.4328 165.467 91.9313 172.697 88.875 179.627Z" fill="url(#paint13_linear)"/>
<path d="M114.509 86.3413C117.512 98.4386 119.106 111.092 119.106 124.119C119.106 136.669 117.626 148.874 114.832 160.569C105.936 150.69 100.522 137.614 100.522 123.274C100.522 109.108 105.805 96.1762 114.509 86.3413Z" fill="url(#paint14_linear)"/>
<path d="M4.59693 161.051C13.3006 151.216 18.5839 138.285 18.5839 124.119C18.5839 109.778 13.1695 96.7024 4.27363 86.8238C1.47951 98.5184 0 110.723 0 123.274C0 136.3 1.59376 148.954 4.59693 161.051Z" fill="url(#paint15_linear)"/>
<path d="M254.142 108.224H274.061V1.78906H252.774V72.8723L198.72 1.78906H178.877V108.224H200.088L200.164 37.1406L254.142 108.224Z" fill="black"/>
<path fill-rule="evenodd" clip-rule="evenodd" d="M373.829 108.224H396.484L355.051 1.78906H329.202L287.769 108.224H309.892L319.167 83.4398H364.554L373.829 108.224ZM357.256 63.9014H326.465L341.898 22.7719L357.256 63.9014Z" fill="black"/>
<path d="M527.677 108.224H506.466V27.8656L480.162 97.9605H457.734L431.43 28.4738V108.224H410.219V1.78906H441.313L468.986 73.6325L496.583 1.78906H527.677V108.224Z" fill="black"/>
<path fill-rule="evenodd" clip-rule="evenodd" d="M627.443 108.224H650.098L608.665 1.78906H582.816L541.383 108.224H563.506L572.781 83.4398H618.168L627.443 108.224ZM610.87 63.9014H580.08L595.513 22.7719L610.87 63.9014Z" fill="black"/>
<path d="M551.815 171.492C555.027 171.492 558.117 171.841 561.085 172.539C564.087 173.237 566.881 174.25 569.464 175.577C572.048 176.869 574.387 178.457 576.482 180.343C578.612 182.228 580.393 184.34 581.824 186.68L574.125 191.865C571.716 188.303 568.591 185.493 564.751 183.433C560.91 181.373 556.598 180.343 551.815 180.343C547.765 180.343 544.011 181.041 540.555 182.438C537.133 183.834 534.148 185.807 531.599 188.356C529.05 190.87 527.06 193.907 525.628 197.469C524.197 201.03 523.481 204.958 523.481 209.252C523.481 213.547 524.197 217.475 525.628 221.036C527.06 224.598 529.05 227.653 531.599 230.201C534.148 232.715 537.133 234.671 540.555 236.067C544.011 237.464 547.765 238.162 551.815 238.162C556.528 238.162 560.805 237.15 564.646 235.124C568.522 233.099 571.664 230.289 574.073 226.692L581.615 232.192C580.079 234.496 578.245 236.556 576.116 238.372C574.021 240.187 571.699 241.741 569.15 243.033C566.601 244.325 563.86 245.302 560.928 245.966C558.03 246.664 554.992 247.013 551.815 247.013C546.298 247.013 541.218 246.088 536.574 244.237C531.965 242.352 527.968 239.733 524.581 236.381C521.194 233.03 518.558 229.049 516.673 224.44C514.787 219.797 513.845 214.734 513.845 209.252C513.845 203.771 514.787 198.725 516.673 194.117C518.558 189.473 521.194 185.475 524.581 182.123C527.968 178.771 531.965 176.17 536.574 174.32C541.218 172.434 546.298 171.492 551.815 171.492Z" fill="black"/>
<path d="M331.279 245.966H339.606V172.592H330.389V230.149L286.029 172.539H277.702V245.913H286.92L286.972 188.356L331.279 245.966Z" fill="black"/>
<path d="M228.781 213.337H188.925V245.913H179.708V172.592H230.876V181.338H188.925V204.644H228.781V213.337Z" fill="black"/>
<path d="M256.846 245.913H247.629V172.592H256.846V245.913Z" fill="black"/>
<path fill-rule="evenodd" clip-rule="evenodd" d="M422.988 245.913H413.089L405.024 225.907H369.463L361.45 245.913H351.866L381.666 172.592H393.135L422.988 245.913ZM372.972 217.161H401.515L387.27 181.704L372.972 217.161Z" fill="black"/>
<path d="M488.806 245.966H497.134V172.592H487.916V230.149L443.556 172.539H435.229V245.913H444.447L444.499 188.356L488.806 245.966Z" fill="black"/>
<path d="M598.075 245.913H650.134V237.272H607.293V213.337H648.248V204.644H607.293V181.233H649.61V172.592H598.075V245.913Z" fill="black"/>
<defs>
<linearGradient id="paint0_linear" x1="-59.5528" y1="123.696" x2="133.273" y2="217.245" gradientUnits="userSpaceOnUse">
<stop stop-color="#F26522"/>
<stop offset="1" stop-color="#F96DB1"/>
</linearGradient>
<linearGradient id="paint1_linear" x1="-59.5528" y1="123.696" x2="133.273" y2="217.245" gradientUnits="userSpaceOnUse">
<stop stop-color="#F26522"/>
<stop offset="1" stop-color="#F96DB1"/>
</linearGradient>
<linearGradient id="paint2_linear" x1="-59.5528" y1="123.696" x2="133.273" y2="217.245" gradientUnits="userSpaceOnUse">
<stop stop-color="#F26522"/>
<stop offset="1" stop-color="#F96DB1"/>
</linearGradient>
<linearGradient id="paint3_linear" x1="-59.5528" y1="123.696" x2="133.273" y2="217.245" gradientUnits="userSpaceOnUse">
<stop stop-color="#F26522"/>
<stop offset="1" stop-color="#F96DB1"/>
</linearGradient>
<linearGradient id="paint4_linear" x1="-59.5528" y1="123.696" x2="133.273" y2="217.245" gradientUnits="userSpaceOnUse">
<stop stop-color="#F26522"/>
<stop offset="1" stop-color="#F96DB1"/>
</linearGradient>
<linearGradient id="paint5_linear" x1="-59.5528" y1="123.696" x2="133.273" y2="217.245" gradientUnits="userSpaceOnUse">
<stop stop-color="#F26522"/>
<stop offset="1" stop-color="#F96DB1"/>
</linearGradient>
<linearGradient id="paint6_linear" x1="-59.5528" y1="123.696" x2="133.273" y2="217.245" gradientUnits="userSpaceOnUse">
<stop stop-color="#F26522"/>
<stop offset="1" stop-color="#F96DB1"/>
</linearGradient>
<linearGradient id="paint7_linear" x1="-59.5528" y1="123.696" x2="133.273" y2="217.245" gradientUnits="userSpaceOnUse">
<stop stop-color="#F26522"/>
<stop offset="1" stop-color="#F96DB1"/>
</linearGradient>
<linearGradient id="paint8_linear" x1="-59.5528" y1="123.696" x2="133.273" y2="217.245" gradientUnits="userSpaceOnUse">
<stop stop-color="#F26522"/>
<stop offset="1" stop-color="#F96DB1"/>
</linearGradient>
<linearGradient id="paint9_linear" x1="-59.5528" y1="123.696" x2="133.273" y2="217.245" gradientUnits="userSpaceOnUse">
<stop stop-color="#F26522"/>
<stop offset="1" stop-color="#F96DB1"/>
</linearGradient>
<linearGradient id="paint10_linear" x1="-59.5528" y1="123.696" x2="133.273" y2="217.245" gradientUnits="userSpaceOnUse">
<stop stop-color="#F26522"/>
<stop offset="1" stop-color="#F96DB1"/>
</linearGradient>
<linearGradient id="paint11_linear" x1="-59.5528" y1="123.696" x2="133.273" y2="217.245" gradientUnits="userSpaceOnUse">
<stop stop-color="#F26522"/>
<stop offset="1" stop-color="#F96DB1"/>
</linearGradient>
<linearGradient id="paint12_linear" x1="-59.5528" y1="123.696" x2="133.273" y2="217.245" gradientUnits="userSpaceOnUse">
<stop stop-color="#F26522"/>
<stop offset="1" stop-color="#F96DB1"/>
</linearGradient>
<linearGradient id="paint13_linear" x1="-59.5528" y1="123.696" x2="133.273" y2="217.245" gradientUnits="userSpaceOnUse">
<stop stop-color="#F26522"/>
<stop offset="1" stop-color="#F96DB1"/>
</linearGradient>
<linearGradient id="paint14_linear" x1="-59.5528" y1="123.696" x2="133.273" y2="217.245" gradientUnits="userSpaceOnUse">
<stop stop-color="#F26522"/>
<stop offset="1" stop-color="#F96DB1"/>
</linearGradient>
<linearGradient id="paint15_linear" x1="-59.5528" y1="123.696" x2="133.273" y2="217.245" gradientUnits="userSpaceOnUse">
<stop stop-color="#F26522"/>
<stop offset="1" stop-color="#F96DB1"/>
</linearGradient>
</defs>
</svg>
