<svg width="120" height="247" viewBox="0 0 120 247" fill="none" xmlns="http://www.w3.org/2000/svg">
<path d="M73.1865 13.4693C68.7226 9.01716 63.9908 4.83342 59.0175 0.944336C54.0786 4.87612 49.3832 9.10072 44.9576 13.5919C49.9513 17.3084 54.6845 21.3555 59.1249 25.7005C63.5279 21.3166 68.2259 17.2287 73.1865 13.4693Z" fill="url(#paint0_linear)"/>
<path d="M47.8883 38.3462C43.4859 33.9803 38.7491 29.951 33.7198 26.3C29.8763 31.1507 26.3148 36.235 23.0598 41.528C28.1632 45.2559 32.9082 49.4455 37.2331 54.0351C40.4283 48.5535 43.9913 43.3126 47.8883 38.3462Z" fill="url(#paint1_linear)"/>
<path d="M48.5899 68.484C51.6645 62.4531 55.2309 56.7148 59.2362 51.322C63.289 56.6806 66.9052 62.3877 70.0321 68.3903C65.6475 75.2657 62.0625 82.7006 59.4081 90.5639C56.6854 82.7264 53.0356 75.3227 48.5899 68.484Z" fill="url(#paint2_linear)"/>
<path d="M30.2306 67.7659C26.0239 62.7401 21.2654 58.1917 16.0485 54.2141C13.2015 59.9839 10.7001 65.9547 8.57144 72.0996C14.1905 77.0442 19.0018 82.8848 22.7822 89.3981C24.6728 81.9252 27.1743 74.6958 30.2306 67.7659Z" fill="url(#paint3_linear)"/>
<path d="M23.0828 158.316C19.3585 164.864 14.5978 170.745 9.02391 175.736C11.2062 181.861 13.7598 187.809 16.6576 193.555C21.8385 189.533 26.5573 184.943 30.7208 179.88C27.6033 172.977 25.0385 165.77 23.0828 158.316Z" fill="url(#paint4_linear)"/>
<path d="M41.9435 162.364C37.7525 150.104 35.4783 136.954 35.4783 123.274C35.4783 109.965 37.6306 97.1587 41.6062 85.1843C47.4171 96.9187 50.6832 110.137 50.6832 124.119C50.6832 137.827 47.5433 150.803 41.9435 162.364Z" fill="url(#paint5_linear)"/>
<path d="M37.8432 193.549C33.5578 198.177 28.8494 202.407 23.7795 206.179C27.0801 211.443 30.6857 216.496 34.5716 221.313C39.5682 217.619 44.2698 213.549 48.6347 209.144C44.6943 204.212 41.0858 199.002 37.8432 193.549Z" fill="url(#paint6_linear)"/>
<path d="M59.8693 196.071C55.8166 190.712 52.2003 185.005 49.0735 179.002C53.4581 172.127 57.0431 164.692 59.6974 156.829C62.4202 164.666 66.07 172.07 70.5157 178.909C67.4411 184.939 63.8747 190.678 59.8693 196.071Z" fill="url(#paint7_linear)"/>
<path d="M59.9807 221.692C55.5777 226.076 50.8797 230.164 45.9191 233.923C50.383 238.375 55.1148 242.559 60.0881 246.448C65.027 242.516 69.7224 238.292 74.148 233.801C69.1543 230.084 64.4211 226.037 59.9807 221.692Z" fill="url(#paint8_linear)"/>
<path d="M85.3858 221.093C80.3565 217.442 75.6197 213.412 71.2173 209.046C75.1142 204.08 78.6773 198.839 81.8725 193.357C86.1974 197.947 90.9423 202.137 96.0458 205.865C92.7908 211.158 89.2292 216.242 85.3858 221.093Z" fill="url(#paint9_linear)"/>
<path d="M95.3261 41.2138C92.0255 35.95 88.4199 30.8969 84.534 26.0793C79.5374 29.7734 74.8357 33.8436 70.4709 38.2482C74.4113 43.1811 78.0198 48.3908 81.2623 53.8435C85.5478 49.2158 90.2562 44.9855 95.3261 41.2138Z" fill="url(#paint10_linear)"/>
<path d="M88.3848 67.5121C92.5482 62.4491 97.267 57.86 102.448 53.838C105.346 59.5833 107.899 65.5318 110.082 71.6566C104.508 76.648 99.7471 82.529 96.0228 89.0764C94.0671 81.6228 91.5023 74.4159 88.3848 67.5121Z" fill="url(#paint11_linear)"/>
<path d="M77.1621 85.0281C71.5623 96.5901 68.4224 109.565 68.4224 123.274C68.4224 137.255 71.6885 150.474 77.4993 162.208C81.475 150.234 83.6273 137.428 83.6273 124.119C83.6273 110.438 81.3531 97.2888 77.1621 85.0281Z" fill="url(#paint12_linear)"/>
<path d="M88.875 179.627C93.0817 184.653 97.8401 189.201 103.057 193.178C105.904 187.409 108.405 181.438 110.534 175.293C104.915 170.348 100.104 164.508 96.3234 157.995C94.4328 165.467 91.9313 172.697 88.875 179.627Z" fill="url(#paint13_linear)"/>
<path d="M114.509 86.3413C117.512 98.4386 119.106 111.092 119.106 124.119C119.106 136.669 117.626 148.874 114.832 160.569C105.936 150.69 100.522 137.614 100.522 123.274C100.522 109.108 105.805 96.1762 114.509 86.3413Z" fill="url(#paint14_linear)"/>
<path d="M4.59693 161.051C13.3006 151.216 18.5839 138.285 18.5839 124.119C18.5839 109.778 13.1695 96.7024 4.27363 86.8238C1.47951 98.5184 0 110.723 0 123.274C0 136.3 1.59376 148.954 4.59693 161.051Z" fill="url(#paint15_linear)"/>
<defs>
<linearGradient id="paint0_linear" x1="-59.5528" y1="123.696" x2="133.273" y2="217.245" gradientUnits="userSpaceOnUse">
<stop stop-color="#F26522"/>
<stop offset="1" stop-color="#F96DB1"/>
</linearGradient>
<linearGradient id="paint1_linear" x1="-59.5528" y1="123.696" x2="133.273" y2="217.245" gradientUnits="userSpaceOnUse">
<stop stop-color="#F26522"/>
<stop offset="1" stop-color="#F96DB1"/>
</linearGradient>
<linearGradient id="paint2_linear" x1="-59.5528" y1="123.696" x2="133.273" y2="217.245" gradientUnits="userSpaceOnUse">
<stop stop-color="#F26522"/>
<stop offset="1" stop-color="#F96DB1"/>
</linearGradient>
<linearGradient id="paint3_linear" x1="-59.5528" y1="123.696" x2="133.273" y2="217.245" gradientUnits="userSpaceOnUse">
<stop stop-color="#F26522"/>
<stop offset="1" stop-color="#F96DB1"/>
</linearGradient>
<linearGradient id="paint4_linear" x1="-59.5528" y1="123.696" x2="133.273" y2="217.245" gradientUnits="userSpaceOnUse">
<stop stop-color="#F26522"/>
<stop offset="1" stop-color="#F96DB1"/>
</linearGradient>
<linearGradient id="paint5_linear" x1="-59.5528" y1="123.696" x2="133.273" y2="217.245" gradientUnits="userSpaceOnUse">
<stop stop-color="#F26522"/>
<stop offset="1" stop-color="#F96DB1"/>
</linearGradient>
<linearGradient id="paint6_linear" x1="-59.5528" y1="123.696" x2="133.273" y2="217.245" gradientUnits="userSpaceOnUse">
<stop stop-color="#F26522"/>
<stop offset="1" stop-color="#F96DB1"/>
</linearGradient>
<linearGradient id="paint7_linear" x1="-59.5528" y1="123.696" x2="133.273" y2="217.245" gradientUnits="userSpaceOnUse">
<stop stop-color="#F26522"/>
<stop offset="1" stop-color="#F96DB1"/>
</linearGradient>
<linearGradient id="paint8_linear" x1="-59.5528" y1="123.696" x2="133.273" y2="217.245" gradientUnits="userSpaceOnUse">
<stop stop-color="#F26522"/>
<stop offset="1" stop-color="#F96DB1"/>
</linearGradient>
<linearGradient id="paint9_linear" x1="-59.5528" y1="123.696" x2="133.273" y2="217.245" gradientUnits="userSpaceOnUse">
<stop stop-color="#F26522"/>
<stop offset="1" stop-color="#F96DB1"/>
</linearGradient>
<linearGradient id="paint10_linear" x1="-59.5528" y1="123.696" x2="133.273" y2="217.245" gradientUnits="userSpaceOnUse">
<stop stop-color="#F26522"/>
<stop offset="1" stop-color="#F96DB1"/>
</linearGradient>
<linearGradient id="paint11_linear" x1="-59.5528" y1="123.696" x2="133.273" y2="217.245" gradientUnits="userSpaceOnUse">
<stop stop-color="#F26522"/>
<stop offset="1" stop-color="#F96DB1"/>
</linearGradient>
<linearGradient id="paint12_linear" x1="-59.5528" y1="123.696" x2="133.273" y2="217.245" gradientUnits="userSpaceOnUse">
<stop stop-color="#F26522"/>
<stop offset="1" stop-color="#F96DB1"/>
</linearGradient>
<linearGradient id="paint13_linear" x1="-59.5528" y1="123.696" x2="133.273" y2="217.245" gradientUnits="userSpaceOnUse">
<stop stop-color="#F26522"/>
<stop offset="1" stop-color="#F96DB1"/>
</linearGradient>
<linearGradient id="paint14_linear" x1="-59.5528" y1="123.696" x2="133.273" y2="217.245" gradientUnits="userSpaceOnUse">
<stop stop-color="#F26522"/>
<stop offset="1" stop-color="#F96DB1"/>
</linearGradient>
<linearGradient id="paint15_linear" x1="-59.5528" y1="123.696" x2="133.273" y2="217.245" gradientUnits="userSpaceOnUse">
<stop stop-color="#F26522"/>
<stop offset="1" stop-color="#F96DB1"/>
</linearGradient>
</defs>
</svg>
