<?xml version="1.0" standalone="no"?>
<!DOCTYPE svg PUBLIC "-//W3C//DTD SVG 20010904//EN"
 "http://www.w3.org/TR/2001/REC-SVG-20010904/DTD/svg10.dtd">
<svg version="1.0" xmlns="http://www.w3.org/2000/svg"
 width="1976.000000pt" height="1976.000000pt" viewBox="0 0 1976.000000 1976.000000"
 preserveAspectRatio="xMidYMid meet">
<metadata>
Created by potrace 1.14, written by Peter Selinger 2001-2017
</metadata>
<g transform="translate(0.000000,1976.000000) scale(0.100000,-0.100000)"
fill="#000000" stroke="none">
<path d="M9780 19671 c-8 -10 -43 -40 -77 -66 -35 -27 -63 -53 -63 -58 0 -6
-3 -8 -6 -4 -3 3 -16 -4 -28 -16 -21 -21 -36 -33 -128 -109 -46 -37 -57 -47
-148 -128 -75 -67 -85 -76 -216 -195 -123 -112 -434 -417 -434 -426 0 -5 7 -9
15 -9 8 0 15 -4 15 -8 0 -5 24 -25 53 -45 29 -20 62 -44 72 -54 11 -10 50 -40
85 -68 83 -63 80 -61 111 -88 15 -12 43 -35 64 -52 20 -16 47 -38 59 -48 11
-11 38 -33 59 -50 21 -18 49 -41 61 -52 12 -11 51 -45 86 -75 35 -30 75 -66
89 -78 14 -13 60 -55 101 -92 41 -37 115 -107 164 -154 49 -47 92 -86 96 -86
3 0 44 37 91 83 187 181 369 347 382 347 5 0 5 5 2 10 -3 6 -2 10 3 10 9 0 32
18 82 63 90 83 415 346 518 422 23 17 42 33 42 36 0 13 -395 389 -541 514 -13
12 -49 43 -79 69 -102 90 -115 101 -200 171 -47 38 -92 75 -100 82 -102 87
-110 93 -116 93 -4 0 -17 11 -30 25 -13 14 -26 25 -30 25 -4 0 -15 6 -23 14
-14 13 -18 13 -31 -3z"/>
<path d="M11812 17650 c-12 -12 -22 -17 -22 -13 0 4 -4 2 -9 -5 -4 -7 -31 -30
-58 -50 -97 -71 -374 -294 -419 -337 -6 -5 -37 -32 -68 -60 -69 -59 -74 -64
-201 -180 -54 -49 -147 -138 -207 -197 l-110 -106 17 -26 c10 -14 21 -26 26
-26 5 0 9 -5 9 -10 0 -6 21 -37 48 -69 26 -32 54 -68 62 -80 8 -13 25 -35 38
-49 13 -15 30 -39 40 -54 9 -16 20 -28 24 -28 4 0 8 -7 8 -15 0 -8 5 -15 10
-15 6 0 10 -6 10 -14 0 -8 3 -16 8 -18 9 -4 72 -84 72 -91 0 -4 23 -36 50 -73
28 -37 50 -70 50 -74 0 -4 9 -17 20 -30 11 -12 34 -46 52 -74 18 -28 36 -52
40 -54 5 -2 8 -9 8 -15 0 -6 7 -19 17 -29 9 -10 21 -27 27 -38 6 -10 31 -51
56 -90 67 -107 81 -130 125 -203 21 -37 44 -67 50 -67 6 0 17 9 25 21 21 28
269 279 304 307 16 12 26 22 22 22 -3 0 20 23 51 52 32 28 65 58 74 67 8 9 42
39 73 66 32 28 68 59 80 70 69 61 101 88 196 165 58 47 112 92 122 100 9 8 48
38 87 65 38 28 73 56 76 64 4 11 -150 268 -175 291 -3 3 -51 74 -108 158 -57
84 -109 161 -117 170 -8 9 -48 64 -89 122 -41 58 -81 112 -88 120 -8 8 -32 40
-53 70 -22 30 -42 57 -45 60 -3 3 -44 53 -89 113 -46 59 -87 107 -91 107 -3 0
-16 -9 -28 -20z"/>
<path d="M7724 17588 c-27 -35 -52 -67 -57 -73 -58 -73 -147 -196 -147 -205 0
-6 -4 -9 -9 -6 -5 3 -11 0 -14 -8 -3 -7 -45 -69 -94 -138 -110 -154 -165 -234
-178 -256 -13 -21 -127 -193 -138 -207 -23 -30 -87 -137 -87 -145 0 -6 -3 -10
-7 -10 -12 0 -65 -99 -59 -108 3 -5 24 -22 48 -38 23 -16 49 -34 58 -41 8 -7
64 -51 125 -99 60 -47 112 -89 115 -92 3 -4 21 -19 42 -34 20 -15 42 -33 50
-40 7 -7 42 -38 78 -68 35 -30 72 -62 80 -70 9 -8 66 -60 126 -115 60 -55 172
-164 250 -242 78 -79 146 -143 152 -143 11 0 68 90 64 103 -1 4 2 7 8 7 5 0
10 4 10 9 0 5 15 32 33 60 17 27 50 80 72 116 22 37 45 72 52 80 7 7 9 15 6
19 -4 3 -2 6 4 6 6 0 16 14 23 30 7 17 16 30 20 30 4 0 13 14 20 30 7 17 16
30 20 30 4 0 15 15 24 33 17 32 95 149 119 177 7 8 26 35 42 60 17 25 33 50
38 55 4 6 42 57 85 115 42 58 80 107 84 108 5 2 8 8 8 13 0 8 26 42 58 75 7 8
10 14 5 14 -4 0 -3 4 2 8 6 4 21 20 34 35 l25 27 -96 93 c-102 99 -261 246
-318 294 -19 16 -48 41 -64 54 -15 13 -38 33 -50 44 -12 11 -44 38 -70 60 -27
22 -54 45 -60 50 -53 50 -463 365 -476 365 -4 0 -29 -28 -56 -62z"/>
<path d="M9814 15642 c-6 -4 -21 -23 -34 -42 -14 -19 -28 -39 -32 -45 -25 -32
-82 -112 -139 -195 -35 -52 -67 -96 -71 -98 -5 -2 -8 -10 -8 -18 0 -8 -4 -14
-10 -14 -5 0 -10 -5 -10 -10 0 -6 -26 -50 -58 -98 -32 -48 -71 -109 -87 -137
-15 -27 -31 -52 -35 -55 -4 -3 -13 -18 -22 -35 -8 -16 -34 -61 -58 -100 -24
-38 -53 -88 -65 -110 -35 -64 -85 -155 -127 -228 -21 -38 -38 -75 -38 -83 0
-8 -3 -14 -8 -14 -4 0 -15 -18 -25 -41 l-18 -41 61 -94 c33 -52 60 -99 60
-104 0 -6 5 -10 10 -10 6 0 10 -4 10 -10 0 -5 19 -40 42 -77 23 -38 53 -90 68
-118 15 -27 41 -75 59 -105 17 -30 41 -75 53 -100 12 -25 26 -48 31 -51 4 -3
9 -12 11 -20 1 -8 34 -77 72 -154 60 -120 124 -259 194 -420 44 -102 143 -360
145 -377 0 -4 6 -13 13 -19 6 -7 12 -21 12 -32 0 -36 35 -78 38 -44 1 21 10
51 26 90 9 20 13 37 10 37 -4 0 -2 6 3 13 5 6 17 32 26 57 9 25 22 59 28 75 7
17 13 35 14 40 7 29 157 377 227 525 73 155 83 175 93 182 6 4 6 8 1 8 -5 0
-4 6 1 13 6 6 38 66 73 132 35 66 90 167 123 224 32 58 64 114 71 125 6 12 13
23 16 26 3 3 14 22 25 43 11 20 23 37 28 37 4 0 6 4 2 9 -3 5 -1 12 5 16 5 3
21 26 35 50 l26 44 -37 73 c-21 40 -60 110 -86 156 -26 46 -48 85 -48 87 0 2
-31 56 -70 121 -38 64 -70 120 -70 124 0 5 -4 10 -8 12 -5 2 -23 28 -40 58
-38 64 -54 90 -65 104 -4 6 -44 67 -89 136 -45 69 -85 127 -90 128 -4 2 -8 10
-8 18 0 8 -4 14 -10 14 -5 0 -10 7 -10 15 0 8 -4 15 -8 15 -5 0 -15 12 -23 27
-14 28 -32 53 -56 78 -7 8 -13 16 -13 19 0 16 -128 173 -136 168z"/>
<path d="M13188 15383 c-94 -75 -163 -133 -214 -178 -18 -16 -54 -48 -80 -70
-25 -22 -144 -137 -263 -255 -208 -207 -311 -317 -311 -332 0 -5 -6 -8 -13 -8
-7 0 -20 -12 -29 -27 -10 -16 -30 -41 -45 -58 -16 -16 -40 -45 -55 -64 l-26
-34 35 -81 c19 -45 42 -97 51 -116 9 -19 16 -37 17 -40 1 -3 6 -16 12 -30 26
-60 152 -379 166 -420 9 -25 25 -70 37 -100 12 -30 23 -62 25 -70 3 -8 39
-116 80 -240 41 -124 77 -234 79 -245 3 -11 5 -20 6 -20 1 0 3 -7 5 -15 2 -8
22 -79 44 -157 23 -78 41 -149 41 -157 0 -26 26 -18 40 12 7 15 13 30 12 35
-1 4 2 7 7 7 5 0 14 14 21 30 7 17 16 30 21 30 5 0 9 5 9 11 0 6 18 38 40 71
22 33 40 64 40 69 0 5 5 9 10 9 6 0 10 7 10 15 0 8 5 15 10 15 6 0 10 4 10 10
0 7 89 138 132 195 5 6 27 35 51 65 23 30 45 56 49 58 5 2 8 8 8 13 0 10 -3 7
161 199 117 137 482 510 499 510 4 0 -5 35 -20 78 -15 42 -33 93 -40 112 -7
19 -21 54 -31 77 -10 24 -19 46 -19 50 0 7 -47 128 -69 178 -43 98 -131 313
-131 322 0 6 -7 16 -15 23 -9 7 -13 15 -11 17 3 3 -9 31 -25 63 -16 31 -29 60
-29 63 0 11 -174 375 -201 420 l-16 28 -85 -68z"/>
<path d="M6360 15405 c0 -8 -4 -15 -8 -15 -5 0 -21 -31 -38 -70 -16 -38 -32
-70 -36 -70 -5 0 -8 -5 -8 -11 0 -6 -14 -41 -31 -77 -81 -174 -152 -338 -152
-349 0 -7 -4 -13 -9 -13 -4 0 -8 -6 -8 -12 0 -7 -11 -35 -25 -63 -13 -27 -25
-58 -25 -67 0 -10 -4 -18 -8 -18 -5 0 -9 -6 -9 -12 0 -7 -10 -34 -21 -60 -12
-26 -22 -50 -22 -53 0 -4 -7 -21 -15 -38 -14 -32 -65 -163 -69 -182 -2 -5 -8
-23 -15 -40 -6 -16 -19 -50 -27 -75 -9 -25 -20 -54 -24 -65 -5 -11 -14 -38
-21 -60 -7 -22 -17 -44 -21 -49 -4 -5 18 -32 50 -60 116 -103 473 -470 501
-515 7 -11 75 -92 119 -141 17 -21 32 -40 32 -44 0 -3 8 -14 18 -24 9 -11 26
-32 37 -47 11 -16 30 -41 42 -56 13 -14 75 -105 138 -200 63 -96 119 -178 123
-184 4 -5 15 -26 26 -46 26 -48 45 -74 51 -67 7 6 17 54 19 81 0 9 3 17 6 17
4 0 7 6 8 13 1 14 10 52 12 52 2 0 7 22 15 60 3 17 10 41 15 55 4 14 18 59 30
100 12 41 31 102 42 135 11 33 21 70 24 82 2 12 9 35 15 50 6 16 10 28 9 28
-1 0 4 14 10 30 7 17 13 37 15 45 4 18 123 357 135 385 32 72 133 332 133 343
0 6 4 12 9 12 5 0 6 5 3 10 -3 6 -1 10 5 10 6 0 9 4 5 9 -3 5 0 15 7 23 7 7
14 22 16 32 2 10 12 35 23 55 10 20 19 43 19 53 0 9 5 20 10 23 12 7 4 19 -65
100 -174 203 -397 430 -619 630 -90 81 -106 95 -173 152 -21 17 -59 48 -84 70
-25 21 -61 49 -80 63 -18 14 -46 36 -60 50 -32 30 -49 35 -49 15z"/>
<path d="M11210 12866 c-45 -98 -64 -141 -92 -206 -33 -76 -36 -83 -68 -165
-17 -44 -38 -95 -46 -113 -8 -18 -14 -37 -14 -43 0 -6 -7 -25 -15 -42 -26 -57
-94 -270 -89 -279 3 -4 1 -8 -4 -8 -5 0 -12 -12 -15 -27 -3 -16 -11 -41 -18
-58 -6 -16 -13 -37 -14 -45 -1 -8 -17 -69 -35 -135 -18 -66 -33 -124 -34 -130
-1 -5 -5 -16 -9 -22 -5 -7 -6 -13 -3 -13 2 0 0 -15 -5 -32 -5 -18 -11 -44 -14
-58 -3 -14 -7 -36 -11 -50 -9 -40 -15 -73 -18 -96 -1 -11 -5 -25 -9 -31 -4 -6
-9 -28 -12 -49 -3 -22 -8 -50 -11 -64 -12 -64 -14 -76 -19 -110 -3 -20 -8 -47
-10 -60 -5 -25 -11 -59 -21 -135 -3 -22 -7 -51 -9 -65 -2 -14 -6 -50 -9 -80
-4 -30 -8 -66 -11 -80 -2 -14 -7 -59 -10 -100 -4 -41 -8 -97 -11 -125 -2 -27
-6 -94 -8 -147 -2 -53 -7 -102 -10 -107 -4 -5 -2 -12 4 -16 6 -4 7 -13 2 -23
-10 -20 -10 -507 0 -517 4 -4 3 -18 -2 -31 -5 -13 -6 -24 -2 -24 4 0 7 -26 8
-57 1 -94 14 -260 30 -403 3 -30 8 -69 9 -87 5 -41 13 -101 26 -183 6 -36 13
-78 16 -95 6 -43 11 -68 23 -133 15 -84 19 -104 26 -137 4 -16 8 -39 10 -50 1
-11 3 -20 4 -20 1 0 3 -9 5 -20 2 -11 6 -31 9 -45 3 -14 8 -34 10 -45 3 -11
17 -67 31 -125 15 -58 28 -112 30 -120 2 -8 8 -27 14 -42 6 -16 9 -28 6 -28
-2 0 3 -16 11 -35 8 -19 11 -35 8 -35 -4 0 -1 -7 6 -15 7 -9 10 -18 7 -22 -4
-3 -3 -11 2 -17 6 -7 12 -23 15 -36 6 -31 87 -272 109 -323 9 -21 16 -41 15
-45 -1 -4 4 -20 11 -37 8 -16 17 -39 21 -50 44 -116 150 -362 214 -495 44 -91
45 -93 55 -66 6 15 11 31 11 36 0 5 5 21 12 37 6 15 12 33 14 38 1 6 26 87 54
180 28 94 53 179 54 190 2 11 8 31 13 45 5 14 9 32 8 40 -1 8 2 20 6 25 6 9
29 100 30 117 0 4 5 22 10 40 11 38 74 324 85 383 3 22 9 49 11 60 3 11 6 29
8 41 1 11 8 45 14 75 6 30 13 70 15 89 3 19 7 46 10 60 3 14 7 43 10 65 4 22
8 51 11 65 6 34 13 84 20 146 3 28 7 60 10 72 3 18 7 54 21 187 1 17 3 30 4
30 1 0 8 82 15 175 2 30 4 55 5 55 3 0 13 188 14 257 0 38 4 68 7 68 3 0 6
200 6 445 -1 245 -3 445 -6 445 -3 0 -7 35 -8 78 -2 113 -12 252 -28 407 -3
22 -7 66 -10 98 -3 31 -7 76 -10 100 -14 116 -17 134 -21 162 -3 16 -7 48 -9
70 -3 22 -7 51 -10 65 -3 14 -8 45 -11 70 -5 43 -8 64 -20 120 -3 14 -7 39 -9
57 -1 17 -5 35 -8 40 -2 4 -8 33 -12 63 -10 74 -13 94 -16 100 -1 3 -3 10 -4
15 -1 6 -7 35 -14 66 -6 30 -14 69 -17 85 -3 16 -7 34 -8 39 -14 53 -47 196
-51 214 -2 9 -13 52 -25 96 -12 44 -23 87 -25 95 -2 8 -6 29 -10 45 -4 17 -18
66 -32 110 -14 44 -26 87 -28 96 -7 34 -66 225 -74 239 -5 9 -12 31 -16 50 -4
19 -10 40 -13 45 -4 6 -7 16 -8 23 -5 32 -16 20 -54 -62z"/>
<path d="M8408 12933 c-7 -12 -101 -304 -104 -325 -1 -5 -2 -9 -4 -10 -1 -2
-3 -10 -5 -18 -2 -8 -9 -33 -15 -55 -6 -22 -13 -47 -15 -55 -2 -8 -4 -15 -5
-15 -1 0 -3 -7 -5 -15 -1 -8 -8 -35 -15 -60 -7 -25 -13 -52 -15 -60 -2 -8 -8
-27 -13 -41 -6 -15 -8 -29 -6 -32 3 -3 1 -14 -5 -26 -6 -11 -13 -32 -15 -48
-2 -15 -6 -35 -9 -43 -6 -15 -34 -147 -43 -197 -3 -15 -7 -36 -10 -45 -3 -10
-7 -28 -9 -40 -3 -13 -16 -84 -30 -158 -14 -74 -28 -151 -31 -170 -3 -19 -7
-43 -10 -53 -3 -9 -7 -34 -9 -55 -5 -41 -10 -76 -20 -142 -4 -25 -9 -58 -11
-75 -2 -16 -5 -43 -8 -60 -2 -16 -7 -64 -11 -105 -4 -41 -8 -77 -10 -80 -2 -3
-6 -45 -10 -93 -3 -48 -8 -97 -10 -109 -3 -11 -7 -66 -10 -122 -3 -55 -8 -132
-10 -171 -3 -38 -7 -132 -10 -208 -3 -77 -8 -143 -11 -148 -3 -5 -2 -9 3 -9 4
0 7 -19 6 -42 -7 -130 -1 -527 12 -723 9 -148 20 -277 31 -385 3 -30 7 -71 9
-90 2 -19 4 -35 5 -35 1 0 3 -22 5 -50 5 -58 13 -122 31 -245 3 -19 7 -53 10
-75 3 -22 7 -51 10 -65 3 -14 7 -36 9 -50 5 -38 32 -186 49 -270 8 -41 18 -88
21 -105 5 -28 8 -45 19 -103 3 -13 8 -33 12 -44 3 -11 7 -30 9 -41 2 -12 6
-31 8 -43 3 -12 15 -63 27 -115 12 -52 25 -101 28 -109 3 -8 6 -22 8 -31 4
-17 22 -85 55 -199 11 -41 21 -81 22 -87 0 -7 4 -13 9 -13 5 0 7 -4 3 -9 -3
-5 -1 -20 4 -33 13 -30 105 -320 105 -332 1 -5 7 -11 14 -14 7 -2 12 0 10 5
-1 4 3 18 10 31 7 12 9 22 5 22 -4 0 -3 4 3 8 5 4 34 61 63 127 28 66 60 135
69 153 9 19 17 39 18 45 1 7 30 82 63 169 34 86 61 162 61 170 0 8 4 18 9 23
7 9 24 59 113 349 12 38 23 79 24 90 1 12 3 21 4 21 1 0 3 7 5 15 2 8 9 33 15
55 6 22 13 49 15 60 3 11 12 49 21 85 9 36 18 76 21 90 2 14 13 66 25 115 11
50 22 106 25 125 6 45 11 74 13 80 1 3 2 9 1 13 -1 4 4 17 10 29 8 16 8 19 -1
13 -9 -6 -9 -2 -1 14 7 11 10 21 8 21 -3 0 0 21 4 48 5 26 12 70 15 97 3 28 7
56 9 63 3 7 7 47 11 90 4 42 11 83 16 90 7 8 7 12 -1 12 -7 0 -10 4 -7 8 3 5
8 35 11 68 3 32 8 84 11 114 6 61 6 119 -2 131 -2 4 -1 10 4 13 27 16 18 738
-13 1031 -7 64 -15 137 -20 195 -4 40 -10 85 -20 145 -2 11 -6 45 -10 75 -4
30 -9 66 -11 80 -3 14 -7 39 -10 55 -3 17 -7 41 -10 55 -3 14 -7 40 -9 59 -2
18 -9 47 -14 65 -5 17 -12 45 -14 61 -6 34 -9 52 -32 149 -9 38 -18 77 -20 85
-2 9 -15 61 -30 116 -14 55 -32 123 -40 150 -15 58 -76 250 -99 315 -15 40
-21 61 -30 95 -1 6 -8 21 -16 35 -7 14 -12 25 -10 25 3 0 -52 151 -70 190 -5
11 -25 61 -45 110 -36 88 -49 117 -115 260 -18 39 -41 87 -50 108 -10 22 -20
35 -22 30z"/>
<path d="M14219 12824 c-13 -14 -36 -38 -51 -54 -16 -16 -28 -31 -28 -35 0 -3
-10 -17 -22 -30 -25 -26 -29 -31 -73 -90 -16 -22 -33 -44 -38 -50 -4 -5 -26
-35 -48 -65 -21 -30 -43 -59 -47 -65 -47 -62 -199 -311 -263 -432 -21 -39 -46
-87 -55 -105 -10 -18 -19 -35 -19 -38 -1 -3 -14 -32 -29 -65 -56 -120 -75
-161 -96 -215 -12 -30 -26 -64 -32 -75 -5 -12 -10 -27 -12 -35 -2 -8 -7 -26
-13 -40 -30 -75 -98 -288 -104 -325 -1 -5 -5 -20 -10 -33 -5 -12 -11 -33 -14
-45 -2 -12 -10 -42 -16 -67 -6 -25 -13 -54 -14 -65 -2 -11 -4 -20 -5 -20 -1 0
-3 -7 -5 -15 -1 -8 -8 -40 -14 -71 -6 -30 -14 -66 -16 -80 -2 -13 -11 -64 -19
-112 -9 -49 -15 -92 -14 -95 1 -4 -2 -23 -6 -42 -4 -19 -9 -62 -11 -95 -2 -33
-4 -60 -5 -60 -6 0 -14 -220 -14 -410 0 -250 10 -433 30 -540 3 -16 5 -37 6
-45 0 -8 6 -53 13 -100 8 -47 16 -98 18 -115 3 -16 8 -37 11 -45 3 -8 8 -33
11 -54 7 -47 15 -86 22 -106 3 -8 7 -26 8 -40 1 -14 7 -36 15 -50 7 -14 12
-27 11 -30 -4 -9 23 -120 29 -120 3 0 6 -9 7 -20 2 -19 74 -242 92 -285 5 -11
19 -47 32 -80 28 -75 75 -181 95 -217 8 -16 13 -28 10 -28 -9 0 184 -364 196
-368 4 -2 8 -8 8 -13 0 -8 123 -210 143 -234 21 -26 97 -135 97 -140 0 -3 9
-15 19 -27 11 -13 42 -52 70 -88 133 -169 200 -241 202 -217 2 20 3 26 12 47
3 8 8 29 11 45 6 36 13 70 20 93 3 9 7 28 10 42 4 23 40 205 51 260 22 102 27
129 30 155 3 17 9 53 14 80 14 69 18 95 42 255 6 41 15 85 20 98 5 14 5 22 -2
22 -6 0 -7 5 -4 10 7 11 10 29 20 105 6 47 8 62 19 148 3 17 8 57 11 87 3 30
7 71 10 90 17 159 29 286 40 444 6 81 17 276 19 342 1 33 6 65 10 72 4 7 2 12
-4 12 -7 0 -8 6 -1 18 7 13 7 22 -1 30 -8 8 -8 15 -1 24 16 21 8 871 -11 1178
-13 204 -19 279 -30 390 -3 30 -8 87 -11 125 -3 39 -8 77 -10 85 -2 8 -7 42
-10 75 -3 33 -8 78 -11 100 -11 83 -25 201 -29 240 -1 17 -6 37 -9 46 -4 9 -6
20 -5 25 1 5 0 11 -1 14 -1 3 -3 14 -4 25 -13 97 -17 124 -22 148 -3 16 -7 38
-9 50 -1 12 -7 49 -13 82 -10 57 -19 105 -27 150 -2 11 -15 76 -29 145 -14 69
-28 136 -30 150 -3 14 -5 25 -6 25 -1 0 -3 9 -5 20 -3 20 -7 39 -22 100 -4 17
-6 36 -4 43 1 6 -3 12 -9 12 -6 0 -9 4 -6 8 3 5 -6 49 -18 100 -13 50 -21 93
-18 97 3 3 3 5 0 5 -3 0 -16 -12 -29 -26z"/>
<path d="M5411 12764 c-6 -27 -14 -60 -17 -74 -2 -14 -7 -32 -10 -40 -6 -17
-52 -231 -59 -275 -2 -16 -7 -41 -10 -55 -10 -47 -15 -75 -21 -110 -3 -19 -7
-42 -9 -50 -3 -8 -7 -33 -11 -55 -3 -22 -12 -71 -20 -110 -8 -38 -16 -88 -18
-110 -2 -22 -9 -71 -16 -110 -6 -38 -13 -87 -15 -110 -3 -22 -6 -49 -9 -60 -4
-23 -13 -90 -21 -155 -3 -25 -7 -63 -10 -85 -11 -82 -18 -161 -19 -192 0 -18
-3 -33 -6 -33 -3 0 -6 -21 -6 -48 -3 -75 -9 -130 -16 -138 -4 -4 -3 -14 2 -24
5 -10 7 -20 4 -23 -6 -6 -12 -83 -30 -417 -17 -297 -10 -1090 11 -1390 3 -36
7 -96 9 -135 3 -38 7 -95 11 -125 3 -30 8 -84 11 -120 8 -106 21 -233 29 -280
2 -14 7 -54 10 -90 3 -36 8 -72 11 -81 2 -9 6 -39 9 -65 2 -27 6 -60 9 -74 17
-91 36 -241 32 -249 -4 -5 -2 -11 3 -13 5 -1 11 -23 14 -48 3 -25 8 -56 11
-70 3 -14 8 -38 10 -55 3 -16 7 -41 10 -55 4 -14 8 -38 11 -55 12 -85 17 -111
22 -125 4 -8 8 -26 10 -40 2 -14 8 -45 13 -70 5 -25 12 -60 15 -79 3 -19 8
-37 10 -41 2 -4 7 -20 9 -36 6 -30 12 -58 22 -96 3 -13 7 -34 10 -48 3 -14 10
-43 16 -65 10 -37 16 -63 20 -92 1 -11 28 -6 28 6 0 3 13 20 28 36 23 25 129
155 154 190 4 5 18 24 31 40 40 50 162 228 182 265 11 19 23 37 26 40 3 3 25
39 49 80 23 41 50 83 58 93 8 9 12 17 8 17 -3 0 4 17 17 38 12 20 36 64 52 97
16 33 33 63 38 66 5 3 9 9 8 12 0 4 16 42 36 84 19 43 36 83 38 88 1 6 12 33
25 60 12 28 23 56 23 63 0 6 4 12 8 12 3 0 9 10 12 23 3 12 22 67 42 122 64
173 159 513 180 645 2 14 11 68 19 120 22 133 25 159 30 210 3 25 6 45 6 45 2
0 4 20 15 165 9 114 10 526 2 625 -11 126 -17 189 -22 225 -3 19 -8 58 -11 85
-7 55 -8 60 -18 125 -11 66 -14 85 -16 85 -1 0 -3 14 -5 30 -1 17 -3 30 -4 30
-3 0 -4 7 -15 60 -13 66 -54 233 -65 265 -5 14 -14 45 -21 70 -17 59 -49 161
-57 180 -3 8 -7 18 -7 22 -1 3 -4 10 -8 14 -5 4 -8 14 -8 22 0 8 -6 28 -14 45
-8 18 -25 61 -39 97 -14 36 -33 83 -43 105 -10 22 -18 42 -19 45 -5 36 -279
545 -311 578 -7 6 -16 21 -19 32 -3 11 -11 20 -16 20 -5 0 -9 5 -9 11 0 12
-85 135 -112 162 -10 10 -18 22 -18 27 0 5 -13 23 -30 41 -16 18 -27 36 -24
41 3 4 1 8 -4 8 -5 0 -30 28 -57 62 -26 34 -56 71 -67 82 -10 12 -36 41 -57
65 l-39 44 -11 -49z"/>
<path d="M9841 7169 c-7 -23 -17 -54 -23 -68 -5 -14 -9 -27 -9 -29 1 -1 -6
-16 -14 -32 -8 -16 -16 -33 -16 -37 -3 -20 -72 -197 -81 -207 -4 -6 -8 -16 -8
-23 0 -7 -9 -32 -19 -56 -27 -59 -34 -81 -33 -89 1 -5 -2 -8 -8 -8 -5 0 -10
-9 -10 -20 0 -11 -4 -20 -10 -20 -6 0 -9 -3 -9 -7 1 -5 0 -11 -1 -15 -1 -5 -3
-11 -4 -15 -1 -5 -12 -27 -24 -50 -12 -24 -19 -43 -16 -43 4 0 -1 -9 -11 -20
-10 -11 -15 -20 -12 -20 9 0 -194 -404 -207 -412 -6 -4 -8 -8 -4 -8 6 0 -14
-37 -97 -185 -15 -27 -59 -101 -97 -164 -37 -63 -68 -118 -68 -123 0 -4 -4 -8
-8 -8 -5 0 -17 -18 -27 -39 -17 -39 -17 -40 6 -83 13 -23 27 -44 32 -46 4 -2
7 -12 7 -23 0 -10 4 -19 9 -19 5 0 13 -10 17 -22 6 -21 125 -232 187 -333 16
-27 36 -60 44 -72 7 -13 13 -26 12 -29 0 -4 3 -10 8 -13 9 -6 37 -49 58 -86
24 -44 129 -200 137 -203 4 -2 8 -8 8 -12 0 -5 14 -29 30 -52 34 -47 99 -143
115 -167 6 -8 20 -26 33 -40 12 -14 22 -31 22 -38 0 -7 4 -13 8 -13 4 0 15
-12 24 -27 10 -16 27 -40 40 -55 13 -14 28 -34 34 -44 10 -17 12 -17 27 -2 10
9 17 19 17 23 0 4 6 12 13 19 6 8 19 24 27 36 8 12 20 28 25 34 6 7 15 19 20
28 28 46 99 144 109 150 6 4 7 8 3 8 -5 0 -2 7 5 15 27 30 38 44 38 50 0 3 23
39 50 79 28 40 50 76 50 80 0 3 8 15 18 26 9 11 26 36 37 55 65 111 141 231
150 237 5 4 7 8 3 8 -4 0 9 28 30 63 21 34 63 107 92 162 30 55 57 102 60 105
6 5 21 39 22 50 0 3 9 17 19 32 10 14 19 33 19 42 0 9 4 16 9 16 18 0 20 32 4
63 -9 18 -33 58 -54 89 -22 31 -39 59 -39 62 0 3 -13 24 -28 48 -16 24 -40 63
-53 88 -13 25 -27 47 -30 50 -23 21 -355 666 -362 704 -1 6 -5 14 -10 17 -4 3
-9 14 -12 25 -2 10 -15 43 -29 71 -14 29 -26 55 -26 58 0 4 -9 25 -19 48 -11
23 -34 78 -51 122 -18 44 -37 91 -43 105 -5 14 -11 31 -13 37 -3 14 -49 142
-68 187 l-12 29 -13 -44z"/>
<path d="M12780 7103 c0 -19 0 -20 -11 -55 -15 -47 -69 -239 -74 -263 -6 -25
-54 -185 -62 -205 -3 -8 -7 -22 -9 -31 -2 -9 -18 -58 -35 -110 -18 -52 -32
-100 -32 -106 0 -7 -4 -13 -9 -13 -5 0 -7 -4 -4 -9 3 -5 -1 -22 -10 -39 -8
-17 -17 -39 -19 -49 -6 -28 -92 -265 -130 -358 -5 -11 -9 -22 -10 -25 -1 -3
-7 -18 -13 -33 -7 -16 -12 -34 -12 -41 0 -6 -4 -16 -8 -21 -5 -6 -17 -32 -27
-60 -10 -27 -31 -79 -48 -115 -16 -36 -34 -76 -39 -90 -6 -14 -16 -36 -22 -50
-15 -31 -15 -41 2 -60 101 -118 175 -201 252 -283 141 -150 320 -324 460 -447
40 -36 78 -70 84 -75 6 -6 36 -30 66 -55 30 -25 57 -47 60 -50 15 -16 192
-151 195 -148 9 11 49 94 47 101 -1 4 2 7 7 7 5 0 12 14 16 30 4 16 10 30 14
30 4 0 8 6 8 13 0 6 26 66 57 132 69 146 82 174 91 203 3 12 10 22 14 22 4 0
8 6 8 13 0 6 20 59 46 117 25 58 49 118 52 133 4 15 10 27 14 27 4 0 8 6 8 13
0 12 83 228 108 282 7 16 11 33 9 37 -3 4 -1 8 4 8 5 0 9 6 9 13 1 6 18 57 38
112 44 117 51 145 38 145 -6 0 -39 28 -74 61 -35 34 -97 94 -138 133 -198 191
-444 477 -612 711 -35 50 -67 92 -71 93 -5 2 -8 8 -8 13 0 5 -16 31 -35 58
-19 26 -35 53 -35 60 0 6 -4 11 -8 11 -5 0 -19 19 -32 43 -24 43 -77 125 -104
162 -8 11 -15 14 -16 8z"/>
<path d="M6860 6983 c-35 -60 -67 -110 -72 -111 -4 -2 -6 -8 -2 -13 3 -5 -2
-12 -10 -15 -9 -3 -16 -11 -16 -16 0 -6 -16 -33 -35 -59 -19 -27 -35 -54 -35
-59 0 -6 -4 -10 -8 -10 -4 0 -16 -15 -27 -32 -10 -18 -23 -37 -27 -43 -5 -5
-39 -52 -77 -103 -98 -132 -231 -294 -339 -414 -80 -88 -349 -356 -376 -373
-26 -17 -36 -62 -18 -79 4 -4 7 -11 7 -14 0 -7 15 -47 60 -167 30 -81 37 -100
34 -100 -1 0 4 -11 11 -25 8 -14 15 -27 16 -30 0 -3 4 -14 9 -25 4 -11 18 -45
30 -75 12 -30 26 -64 30 -75 5 -11 9 -22 10 -25 0 -3 11 -27 24 -55 12 -27 24
-54 25 -60 2 -5 13 -32 25 -60 12 -27 29 -66 38 -85 9 -19 31 -69 51 -110 19
-41 35 -79 36 -85 1 -5 8 -21 16 -35 8 -14 15 -27 15 -30 0 -3 35 -76 78 -163
55 -115 80 -156 89 -151 17 10 162 125 168 133 3 3 30 26 60 51 30 25 60 49
66 55 6 5 42 37 80 70 162 141 523 514 677 699 l65 78 -27 62 c-16 33 -38 82
-50 108 -11 26 -21 49 -21 51 0 3 -10 26 -22 53 -12 27 -23 54 -24 59 -2 6
-33 84 -69 174 -37 90 -68 171 -70 180 -2 9 -10 32 -18 51 -29 70 -184 530
-192 570 -5 27 -38 129 -45 142 -6 10 -10 24 -10 33 0 13 -59 227 -64 233 -2
1 -31 -46 -66 -105z"/>
<path d="M11610 4257 c-10 -18 -24 -37 -29 -44 -6 -7 -11 -15 -11 -18 0 -3
-22 -42 -50 -86 -27 -44 -50 -84 -50 -87 0 -4 -11 -20 -25 -36 -14 -16 -25
-35 -25 -42 0 -7 -4 -14 -8 -16 -7 -2 -66 -93 -115 -173 -7 -11 -14 -22 -17
-25 -3 -3 -27 -39 -55 -80 -27 -41 -52 -77 -55 -80 -3 -3 -25 -34 -49 -70 -25
-36 -48 -66 -53 -68 -4 -2 -8 -8 -8 -13 0 -7 -161 -229 -205 -282 -8 -9 -15
-22 -15 -28 0 -5 -3 -8 -8 -5 -4 2 -17 -13 -29 -33 l-22 -38 102 -99 c88 -85
149 -141 307 -284 15 -14 45 -39 66 -56 22 -18 53 -45 69 -60 17 -16 53 -47
80 -69 28 -21 52 -42 55 -45 3 -3 37 -30 75 -60 39 -30 72 -57 75 -60 3 -3 21
-17 40 -30 19 -13 37 -27 40 -31 3 -3 46 -36 95 -73 50 -36 99 -73 110 -81 17
-14 20 -13 28 1 10 17 20 31 68 88 14 17 45 58 69 91 24 33 46 62 50 65 3 3
23 30 44 60 22 30 43 57 48 58 4 2 8 10 8 18 0 8 5 14 10 14 6 0 10 4 10 10 0
5 7 18 15 27 43 53 135 184 135 193 0 5 5 10 10 10 6 0 10 7 10 15 0 8 3 15 8
15 4 0 25 28 47 63 22 34 44 65 50 69 5 4 6 8 2 8 -5 0 -2 6 5 14 7 7 19 22
26 32 33 48 146 226 183 287 l41 69 -23 16 c-13 9 -31 24 -41 34 -10 10 -18
15 -18 11 0 -5 -4 -3 -8 2 -4 6 -36 32 -72 60 -36 27 -70 54 -77 60 -7 5 -18
15 -25 20 -34 26 -131 106 -168 137 -8 7 -44 38 -80 68 -90 76 -115 98 -166
148 -24 23 -44 40 -44 38 0 -3 -92 87 -205 199 l-206 204 -19 -32z"/>
<path d="M8060 4229 c-92 -105 -357 -364 -515 -504 -37 -33 -73 -65 -79 -70
-19 -18 -250 -209 -284 -235 -18 -14 -45 -35 -60 -48 -15 -12 -51 -39 -79 -60
-29 -20 -53 -42 -53 -48 0 -5 25 -48 55 -95 30 -46 58 -91 62 -99 4 -8 11 -19
15 -25 23 -28 148 -217 148 -225 0 -4 4 -10 8 -12 8 -3 81 -103 107 -146 6
-10 12 -19 15 -22 3 -3 55 -72 115 -155 124 -170 116 -159 155 -205 16 -19 30
-38 30 -41 0 -3 10 -17 23 -31 28 -32 43 -51 87 -109 21 -27 39 -42 45 -37 6
4 37 28 70 53 33 25 69 52 80 60 11 9 33 26 49 38 17 12 37 29 46 37 9 8 34
28 55 45 22 16 45 34 51 40 7 5 31 26 55 45 24 19 51 43 61 53 10 9 18 15 18
13 0 -3 12 8 28 22 15 15 43 41 63 57 102 85 254 225 442 407 93 90 99 98 83
113 -9 9 -16 19 -16 23 0 4 -15 23 -33 43 -18 20 -44 52 -57 72 -14 20 -28 37
-32 37 -5 0 -8 5 -8 11 0 6 -6 16 -12 23 -14 13 -19 21 -99 131 -28 39 -55 72
-60 73 -5 2 -9 9 -9 16 0 7 -8 21 -17 32 -39 43 -382 557 -430 644 -33 61 -73
120 -81 119 -4 0 -23 -18 -42 -40z"/>
<path d="M9754 1906 c-61 -61 -139 -136 -173 -166 -34 -30 -86 -78 -116 -107
-30 -28 -63 -58 -74 -65 -11 -8 -44 -37 -74 -64 -58 -53 -71 -64 -165 -139
-34 -27 -62 -53 -62 -57 0 -5 -7 -8 -15 -8 -8 0 -15 -3 -15 -7 0 -5 -41 -39
-91 -78 -50 -38 -101 -80 -114 -92 -13 -13 -28 -23 -32 -23 -5 0 -21 -12 -36
-26 -24 -22 -26 -28 -15 -42 19 -24 170 -171 277 -270 138 -128 142 -132 216
-197 37 -33 77 -69 89 -80 36 -32 137 -119 158 -135 10 -8 31 -26 46 -38 88
-77 323 -262 331 -262 5 0 16 6 23 13 7 7 49 42 93 77 128 104 196 161 275
230 30 27 64 57 76 67 125 107 358 324 547 511 l108 106 -32 28 c-17 15 -35
28 -38 28 -4 0 -16 8 -27 18 -10 10 -37 31 -59 47 -22 17 -42 32 -45 35 -3 3
-25 21 -50 39 -25 19 -49 39 -55 45 -5 6 -31 27 -57 47 -48 37 -99 79 -228
189 -42 36 -83 71 -92 79 -76 65 -234 209 -352 323 -50 48 -95 87 -101 86 -5
0 -60 -51 -121 -112z"/>
</g>
</svg>
